<?xml version="1.0" encoding="utf-8" standalone="no"?>
<!DOCTYPE svg PUBLIC "-//W3C//DTD SVG 1.1//EN"
  "http://www.w3.org/Graphics/SVG/1.1/DTD/svg11.dtd">
<svg xmlns:xlink="http://www.w3.org/1999/xlink" width="432pt" height="432pt" viewBox="0 0 432 432" xmlns="http://www.w3.org/2000/svg" version="1.1">
 <metadata>
  <rdf:RDF xmlns:dc="http://purl.org/dc/elements/1.1/" xmlns:cc="http://creativecommons.org/ns#" xmlns:rdf="http://www.w3.org/1999/02/22-rdf-syntax-ns#">
   <cc:Work>
    <dc:type rdf:resource="http://purl.org/dc/dcmitype/StillImage"/>
    <dc:date>2025-12-16T17:35:14.620354</dc:date>
    <dc:format>image/svg+xml</dc:format>
    <dc:creator>
     <cc:Agent>
      <dc:title>Matplotlib v3.8.1, https://matplotlib.org/</dc:title>
     </cc:Agent>
    </dc:creator>
   </cc:Work>
  </rdf:RDF>
 </metadata>
 <defs>
  <style type="text/css">*{stroke-linejoin: round; stroke-linecap: butt}</style>
 </defs>
 <g id="figure_1">
  <g id="patch_1">
   <path d="M 0 432 
L 432 432 
L 432 0 
L 0 0 
z
" style="fill: #ffffff"/>
  </g>
  <g id="axes_1">
   <g id="patch_2">
    <path d="M 54 384.48 
L 388.8 384.48 
L 388.8 51.84 
L 54 51.84 
z
" style="fill: #ffffff"/>
   </g>
   <g id="matplotlib.axis_1">
    <g id="xtick_1">
     <g id="line2d_1">
      <defs>
       <path id="m9e176579a6" d="M 0 0 
L 0 3.5 
" style="stroke: #000000; stroke-width: 0.8"/>
      </defs>
      <g>
       <use xlink:href="#m9e176579a6" x="69.218182" y="384.48" style="stroke: #000000; stroke-width: 0.8"/>
      </g>
     </g>
     <g id="text_1">
      <!-- 0.0 -->
      <g transform="translate(61.266619 399.078438) scale(0.1 -0.1)">
       <defs>
        <path id="DejaVuSans-30" d="M 2034 4250 
Q 1547 4250 1301 3770 
Q 1056 3291 1056 2328 
Q 1056 1369 1301 889 
Q 1547 409 2034 409 
Q 2525 409 2770 889 
Q 3016 1369 3016 2328 
Q 3016 3291 2770 3770 
Q 2525 4250 2034 4250 
z
M 2034 4750 
Q 2819 4750 3233 4129 
Q 3647 3509 3647 2328 
Q 3647 1150 3233 529 
Q 2819 -91 2034 -91 
Q 1250 -91 836 529 
Q 422 1150 422 2328 
Q 422 3509 836 4129 
Q 1250 4750 2034 4750 
z
" transform="scale(0.015625)"/>
        <path id="DejaVuSans-2e" d="M 684 794 
L 1344 794 
L 1344 0 
L 684 0 
L 684 794 
z
" transform="scale(0.015625)"/>
       </defs>
       <use xlink:href="#DejaVuSans-30"/>
       <use xlink:href="#DejaVuSans-2e" x="63.623047"/>
       <use xlink:href="#DejaVuSans-30" x="95.410156"/>
      </g>
     </g>
    </g>
    <g id="xtick_2">
     <g id="line2d_2">
      <g>
       <use xlink:href="#m9e176579a6" x="107.647934" y="384.48" style="stroke: #000000; stroke-width: 0.8"/>
      </g>
     </g>
     <g id="text_2">
      <!-- 0.5 -->
      <g transform="translate(99.696371 399.078438) scale(0.1 -0.1)">
       <defs>
        <path id="DejaVuSans-35" d="M 691 4666 
L 3169 4666 
L 3169 4134 
L 1269 4134 
L 1269 2991 
Q 1406 3038 1543 3061 
Q 1681 3084 1819 3084 
Q 2600 3084 3056 2656 
Q 3513 2228 3513 1497 
Q 3513 744 3044 326 
Q 2575 -91 1722 -91 
Q 1428 -91 1123 -41 
Q 819 9 494 109 
L 494 744 
Q 775 591 1075 516 
Q 1375 441 1709 441 
Q 2250 441 2565 725 
Q 2881 1009 2881 1497 
Q 2881 1984 2565 2268 
Q 2250 2553 1709 2553 
Q 1456 2553 1204 2497 
Q 953 2441 691 2322 
L 691 4666 
z
" transform="scale(0.015625)"/>
       </defs>
       <use xlink:href="#DejaVuSans-30"/>
       <use xlink:href="#DejaVuSans-2e" x="63.623047"/>
       <use xlink:href="#DejaVuSans-35" x="95.410156"/>
      </g>
     </g>
    </g>
    <g id="xtick_3">
     <g id="line2d_3">
      <g>
       <use xlink:href="#m9e176579a6" x="146.077686" y="384.48" style="stroke: #000000; stroke-width: 0.8"/>
      </g>
     </g>
     <g id="text_3">
      <!-- 1.0 -->
      <g transform="translate(138.126123 399.078438) scale(0.1 -0.1)">
       <defs>
        <path id="DejaVuSans-31" d="M 794 531 
L 1825 531 
L 1825 4091 
L 703 3866 
L 703 4441 
L 1819 4666 
L 2450 4666 
L 2450 531 
L 3481 531 
L 3481 0 
L 794 0 
L 794 531 
z
" transform="scale(0.015625)"/>
       </defs>
       <use xlink:href="#DejaVuSans-31"/>
       <use xlink:href="#DejaVuSans-2e" x="63.623047"/>
       <use xlink:href="#DejaVuSans-30" x="95.410156"/>
      </g>
     </g>
    </g>
    <g id="xtick_4">
     <g id="line2d_4">
      <g>
       <use xlink:href="#m9e176579a6" x="184.507438" y="384.48" style="stroke: #000000; stroke-width: 0.8"/>
      </g>
     </g>
     <g id="text_4">
      <!-- 1.5 -->
      <g transform="translate(176.555876 399.078438) scale(0.1 -0.1)">
       <use xlink:href="#DejaVuSans-31"/>
       <use xlink:href="#DejaVuSans-2e" x="63.623047"/>
       <use xlink:href="#DejaVuSans-35" x="95.410156"/>
      </g>
     </g>
    </g>
    <g id="xtick_5">
     <g id="line2d_5">
      <g>
       <use xlink:href="#m9e176579a6" x="222.93719" y="384.48" style="stroke: #000000; stroke-width: 0.8"/>
      </g>
     </g>
     <g id="text_5">
      <!-- 2.0 -->
      <g transform="translate(214.985628 399.078438) scale(0.1 -0.1)">
       <defs>
        <path id="DejaVuSans-32" d="M 1228 531 
L 3431 531 
L 3431 0 
L 469 0 
L 469 531 
Q 828 903 1448 1529 
Q 2069 2156 2228 2338 
Q 2531 2678 2651 2914 
Q 2772 3150 2772 3378 
Q 2772 3750 2511 3984 
Q 2250 4219 1831 4219 
Q 1534 4219 1204 4116 
Q 875 4013 500 3803 
L 500 4441 
Q 881 4594 1212 4672 
Q 1544 4750 1819 4750 
Q 2544 4750 2975 4387 
Q 3406 4025 3406 3419 
Q 3406 3131 3298 2873 
Q 3191 2616 2906 2266 
Q 2828 2175 2409 1742 
Q 1991 1309 1228 531 
z
" transform="scale(0.015625)"/>
       </defs>
       <use xlink:href="#DejaVuSans-32"/>
       <use xlink:href="#DejaVuSans-2e" x="63.623047"/>
       <use xlink:href="#DejaVuSans-30" x="95.410156"/>
      </g>
     </g>
    </g>
    <g id="xtick_6">
     <g id="line2d_6">
      <g>
       <use xlink:href="#m9e176579a6" x="261.366942" y="384.48" style="stroke: #000000; stroke-width: 0.8"/>
      </g>
     </g>
     <g id="text_6">
      <!-- 2.5 -->
      <g transform="translate(253.41538 399.078438) scale(0.1 -0.1)">
       <use xlink:href="#DejaVuSans-32"/>
       <use xlink:href="#DejaVuSans-2e" x="63.623047"/>
       <use xlink:href="#DejaVuSans-35" x="95.410156"/>
      </g>
     </g>
    </g>
    <g id="xtick_7">
     <g id="line2d_7">
      <g>
       <use xlink:href="#m9e176579a6" x="299.796694" y="384.48" style="stroke: #000000; stroke-width: 0.8"/>
      </g>
     </g>
     <g id="text_7">
      <!-- 3.0 -->
      <g transform="translate(291.845132 399.078438) scale(0.1 -0.1)">
       <defs>
        <path id="DejaVuSans-33" d="M 2597 2516 
Q 3050 2419 3304 2112 
Q 3559 1806 3559 1356 
Q 3559 666 3084 287 
Q 2609 -91 1734 -91 
Q 1441 -91 1130 -33 
Q 819 25 488 141 
L 488 750 
Q 750 597 1062 519 
Q 1375 441 1716 441 
Q 2309 441 2620 675 
Q 2931 909 2931 1356 
Q 2931 1769 2642 2001 
Q 2353 2234 1838 2234 
L 1294 2234 
L 1294 2753 
L 1863 2753 
Q 2328 2753 2575 2939 
Q 2822 3125 2822 3475 
Q 2822 3834 2567 4026 
Q 2313 4219 1838 4219 
Q 1578 4219 1281 4162 
Q 984 4106 628 3988 
L 628 4550 
Q 988 4650 1302 4700 
Q 1616 4750 1894 4750 
Q 2613 4750 3031 4423 
Q 3450 4097 3450 3541 
Q 3450 3153 3228 2886 
Q 3006 2619 2597 2516 
z
" transform="scale(0.015625)"/>
       </defs>
       <use xlink:href="#DejaVuSans-33"/>
       <use xlink:href="#DejaVuSans-2e" x="63.623047"/>
       <use xlink:href="#DejaVuSans-30" x="95.410156"/>
      </g>
     </g>
    </g>
    <g id="xtick_8">
     <g id="line2d_8">
      <g>
       <use xlink:href="#m9e176579a6" x="338.226446" y="384.48" style="stroke: #000000; stroke-width: 0.8"/>
      </g>
     </g>
     <g id="text_8">
      <!-- 3.5 -->
      <g transform="translate(330.274884 399.078438) scale(0.1 -0.1)">
       <use xlink:href="#DejaVuSans-33"/>
       <use xlink:href="#DejaVuSans-2e" x="63.623047"/>
       <use xlink:href="#DejaVuSans-35" x="95.410156"/>
      </g>
     </g>
    </g>
    <g id="xtick_9">
     <g id="line2d_9">
      <g>
       <use xlink:href="#m9e176579a6" x="376.656198" y="384.48" style="stroke: #000000; stroke-width: 0.8"/>
      </g>
     </g>
     <g id="text_9">
      <!-- 4.0 -->
      <g transform="translate(368.704636 399.078438) scale(0.1 -0.1)">
       <defs>
        <path id="DejaVuSans-34" d="M 2419 4116 
L 825 1625 
L 2419 1625 
L 2419 4116 
z
M 2253 4666 
L 3047 4666 
L 3047 1625 
L 3713 1625 
L 3713 1100 
L 3047 1100 
L 3047 0 
L 2419 0 
L 2419 1100 
L 313 1100 
L 313 1709 
L 2253 4666 
z
" transform="scale(0.015625)"/>
       </defs>
       <use xlink:href="#DejaVuSans-34"/>
       <use xlink:href="#DejaVuSans-2e" x="63.623047"/>
       <use xlink:href="#DejaVuSans-30" x="95.410156"/>
      </g>
     </g>
    </g>
   </g>
   <g id="matplotlib.axis_2">
    <g id="ytick_1">
     <g id="line2d_10">
      <defs>
       <path id="mc1f02be976" d="M 0 0 
L -3.5 0 
" style="stroke: #000000; stroke-width: 0.8"/>
      </defs>
      <g>
       <use xlink:href="#mc1f02be976" x="54" y="380.160062" style="stroke: #000000; stroke-width: 0.8"/>
      </g>
     </g>
     <g id="text_10">
      <!-- −0.20 -->
      <g transform="translate(16.354687 383.959281) scale(0.1 -0.1)">
       <defs>
        <path id="DejaVuSans-2212" d="M 678 2272 
L 4684 2272 
L 4684 1741 
L 678 1741 
L 678 2272 
z
" transform="scale(0.015625)"/>
       </defs>
       <use xlink:href="#DejaVuSans-2212"/>
       <use xlink:href="#DejaVuSans-30" x="83.789062"/>
       <use xlink:href="#DejaVuSans-2e" x="147.412109"/>
       <use xlink:href="#DejaVuSans-32" x="179.199219"/>
       <use xlink:href="#DejaVuSans-30" x="242.822266"/>
      </g>
     </g>
    </g>
    <g id="ytick_2">
     <g id="line2d_11">
      <g>
       <use xlink:href="#mc1f02be976" x="54" y="339.395789" style="stroke: #000000; stroke-width: 0.8"/>
      </g>
     </g>
     <g id="text_11">
      <!-- −0.15 -->
      <g transform="translate(16.354687 343.195008) scale(0.1 -0.1)">
       <use xlink:href="#DejaVuSans-2212"/>
       <use xlink:href="#DejaVuSans-30" x="83.789062"/>
       <use xlink:href="#DejaVuSans-2e" x="147.412109"/>
       <use xlink:href="#DejaVuSans-31" x="179.199219"/>
       <use xlink:href="#DejaVuSans-35" x="242.822266"/>
      </g>
     </g>
    </g>
    <g id="ytick_3">
     <g id="line2d_12">
      <g>
       <use xlink:href="#mc1f02be976" x="54" y="298.631516" style="stroke: #000000; stroke-width: 0.8"/>
      </g>
     </g>
     <g id="text_12">
      <!-- −0.10 -->
      <g transform="translate(16.354687 302.430735) scale(0.1 -0.1)">
       <use xlink:href="#DejaVuSans-2212"/>
       <use xlink:href="#DejaVuSans-30" x="83.789062"/>
       <use xlink:href="#DejaVuSans-2e" x="147.412109"/>
       <use xlink:href="#DejaVuSans-31" x="179.199219"/>
       <use xlink:href="#DejaVuSans-30" x="242.822266"/>
      </g>
     </g>
    </g>
    <g id="ytick_4">
     <g id="line2d_13">
      <g>
       <use xlink:href="#mc1f02be976" x="54" y="257.867243" style="stroke: #000000; stroke-width: 0.8"/>
      </g>
     </g>
     <g id="text_13">
      <!-- −0.05 -->
      <g transform="translate(16.354687 261.666462) scale(0.1 -0.1)">
       <use xlink:href="#DejaVuSans-2212"/>
       <use xlink:href="#DejaVuSans-30" x="83.789062"/>
       <use xlink:href="#DejaVuSans-2e" x="147.412109"/>
       <use xlink:href="#DejaVuSans-30" x="179.199219"/>
       <use xlink:href="#DejaVuSans-35" x="242.822266"/>
      </g>
     </g>
    </g>
    <g id="ytick_5">
     <g id="line2d_14">
      <g>
       <use xlink:href="#mc1f02be976" x="54" y="217.10297" style="stroke: #000000; stroke-width: 0.8"/>
      </g>
     </g>
     <g id="text_14">
      <!-- 0.00 -->
      <g transform="translate(24.734375 220.902189) scale(0.1 -0.1)">
       <use xlink:href="#DejaVuSans-30"/>
       <use xlink:href="#DejaVuSans-2e" x="63.623047"/>
       <use xlink:href="#DejaVuSans-30" x="95.410156"/>
       <use xlink:href="#DejaVuSans-30" x="159.033203"/>
      </g>
     </g>
    </g>
    <g id="ytick_6">
     <g id="line2d_15">
      <g>
       <use xlink:href="#mc1f02be976" x="54" y="176.338697" style="stroke: #000000; stroke-width: 0.8"/>
      </g>
     </g>
     <g id="text_15">
      <!-- 0.05 -->
      <g transform="translate(24.734375 180.137916) scale(0.1 -0.1)">
       <use xlink:href="#DejaVuSans-30"/>
       <use xlink:href="#DejaVuSans-2e" x="63.623047"/>
       <use xlink:href="#DejaVuSans-30" x="95.410156"/>
       <use xlink:href="#DejaVuSans-35" x="159.033203"/>
      </g>
     </g>
    </g>
    <g id="ytick_7">
     <g id="line2d_16">
      <g>
       <use xlink:href="#mc1f02be976" x="54" y="135.574424" style="stroke: #000000; stroke-width: 0.8"/>
      </g>
     </g>
     <g id="text_16">
      <!-- 0.10 -->
      <g transform="translate(24.734375 139.373643) scale(0.1 -0.1)">
       <use xlink:href="#DejaVuSans-30"/>
       <use xlink:href="#DejaVuSans-2e" x="63.623047"/>
       <use xlink:href="#DejaVuSans-31" x="95.410156"/>
       <use xlink:href="#DejaVuSans-30" x="159.033203"/>
      </g>
     </g>
    </g>
    <g id="ytick_8">
     <g id="line2d_17">
      <g>
       <use xlink:href="#mc1f02be976" x="54" y="94.810151" style="stroke: #000000; stroke-width: 0.8"/>
      </g>
     </g>
     <g id="text_17">
      <!-- 0.15 -->
      <g transform="translate(24.734375 98.60937) scale(0.1 -0.1)">
       <use xlink:href="#DejaVuSans-30"/>
       <use xlink:href="#DejaVuSans-2e" x="63.623047"/>
       <use xlink:href="#DejaVuSans-31" x="95.410156"/>
       <use xlink:href="#DejaVuSans-35" x="159.033203"/>
      </g>
     </g>
    </g>
    <g id="ytick_9">
     <g id="line2d_18">
      <g>
       <use xlink:href="#mc1f02be976" x="54" y="54.045878" style="stroke: #000000; stroke-width: 0.8"/>
      </g>
     </g>
     <g id="text_18">
      <!-- 0.20 -->
      <g transform="translate(24.734375 57.845097) scale(0.1 -0.1)">
       <use xlink:href="#DejaVuSans-30"/>
       <use xlink:href="#DejaVuSans-2e" x="63.623047"/>
       <use xlink:href="#DejaVuSans-32" x="95.410156"/>
       <use xlink:href="#DejaVuSans-30" x="159.033203"/>
      </g>
     </g>
    </g>
   </g>
   <g id="line2d_19">
    <path d="M 69.218182 138.494753 
L 70.755372 176.875655 
L 72.292562 261.606993 
L 73.829752 307.699777 
L 75.366942 320.781377 
L 76.904132 348.793502 
L 78.441322 361.357755 
L 79.978512 363.424931 
L 81.515702 362.461273 
L 83.052893 360.611832 
L 84.590083 357.99103 
L 86.127273 350.560418 
L 87.664463 330.999059 
L 89.201653 307.605286 
L 90.738843 292.927651 
L 92.276033 259.992874 
L 93.813223 179.283618 
L 95.350413 148.505406 
L 96.887603 141.737414 
L 98.424793 123.525422 
L 99.961983 110.476066 
L 101.499174 102.912289 
L 103.036364 97.555185 
L 104.573554 93.264712 
L 106.110744 89.978415 
L 107.647934 89.920538 
L 109.185124 92.732855 
L 110.722314 91.710819 
L 112.259504 88.4008 
L 113.796694 88.443349 
L 115.333884 91.769997 
L 116.871074 93.318452 
L 118.408264 92.702101 
L 119.945455 92.653865 
L 121.482645 94.848245 
L 123.019835 98.892431 
L 124.557025 110.559386 
L 126.094215 147.272414 
L 127.631405 206.300694 
L 129.168595 255.98212 
L 130.705785 270.886074 
L 132.242975 287.64369 
L 133.780165 309.170721 
L 135.317355 322.467216 
L 136.854545 329.60157 
L 138.391736 340.906613 
L 139.928926 347.631487 
L 141.466116 351.19815 
L 143.003306 352.135685 
L 144.540496 352.21638 
L 146.077686 354.362498 
L 147.614876 357.977864 
L 149.152066 360.505642 
L 150.689256 361.632767 
L 152.226446 362.064331 
L 155.300826 363.41285 
L 156.838017 363.710175 
L 159.912397 363.449778 
L 161.449587 363.640474 
L 162.986777 363.614236 
L 164.523967 363.049368 
L 166.061157 362.077821 
L 167.598347 360.647902 
L 169.135537 358.587434 
L 170.672727 356.201516 
L 172.209917 353.362046 
L 176.821488 342.566938 
L 178.358678 337.296353 
L 179.895868 330.443642 
L 181.433058 321.083885 
L 182.970248 304.350411 
L 184.507438 277.550299 
L 186.044628 256.260305 
L 187.581818 242.036574 
L 189.119008 225.980894 
L 190.656198 212.470609 
L 192.193388 208.62779 
L 193.730579 209.171184 
L 195.267769 204.944105 
L 196.804959 192.637115 
L 198.342149 174.004259 
L 199.879339 151.968168 
L 201.416529 133.48318 
L 202.953719 122.908398 
L 206.028099 103.849239 
L 207.565289 100.5751 
L 209.102479 99.44937 
L 212.17686 88.873002 
L 213.71405 88.925249 
L 215.25124 92.298067 
L 216.78843 93.0243 
L 218.32562 90.179404 
L 219.86281 88.001918 
L 221.4 88.06298 
L 222.93719 86.730166 
L 224.47438 82.667012 
L 226.01157 82.018195 
L 227.54876 85.719634 
L 229.08595 88.567222 
L 230.62314 87.461532 
L 232.160331 85.754768 
L 233.697521 86.513792 
L 235.234711 89.169001 
L 238.309091 95.133614 
L 239.846281 95.300433 
L 241.383471 89.088146 
L 242.920661 82.099939 
L 244.457851 82.685321 
L 245.995041 88.348277 
L 247.532231 92.040806 
L 249.069421 91.566672 
L 250.606612 92.553415 
L 252.143802 97.432153 
L 253.680992 102.822635 
L 255.218182 108.766661 
L 256.755372 123.49306 
L 258.292562 131.907555 
L 259.829752 136.499616 
L 261.366942 171.145616 
L 262.904132 236.912489 
L 264.441322 278.478878 
L 265.978512 277.699724 
L 267.515702 293.988239 
L 269.052893 325.828777 
L 270.590083 344.010463 
L 272.127273 351.363905 
L 273.664463 352.933188 
L 275.201653 355.058861 
L 276.738843 355.017131 
L 278.276033 353.142025 
L 279.813223 351.630666 
L 281.350413 351.324881 
L 282.887603 349.783951 
L 284.424793 346.011786 
L 285.961983 341.721513 
L 287.499174 338.1744 
L 289.036364 335.480887 
L 292.110744 331.899285 
L 293.647934 330.430285 
L 296.722314 332.69233 
L 298.259504 327.706171 
L 299.796694 314.352912 
L 301.333884 307.202628 
L 302.871074 319.960017 
L 304.408264 326.502846 
L 305.945455 305.704951 
L 307.482645 273.524339 
L 309.019835 286.375733 
L 310.557025 266.311719 
L 312.094215 165.611894 
L 313.631405 157.055823 
L 315.168595 215.759306 
L 316.705785 208.432254 
L 318.242975 112.858448 
L 319.780165 82.613665 
L 321.317355 103.487119 
L 322.854545 116.222075 
L 324.391736 107.566053 
L 325.928926 97.956618 
L 327.466116 102.730035 
L 329.003306 118.800268 
L 330.540496 136.549915 
L 332.077686 189.269704 
L 333.614876 226.815049 
L 336.689256 216.135592 
L 338.226446 232.578295 
L 339.763636 255.490087 
L 341.300826 275.177576 
L 342.838017 289.125399 
L 345.912397 307.294718 
L 347.449587 318.32431 
L 348.986777 327.481557 
L 350.523967 329.154497 
L 352.061157 326.887136 
L 353.598347 323.758362 
L 355.135537 321.217723 
L 358.209917 315.152588 
L 359.747107 120.507386 
L 373.581818 120.507386 
L 373.581818 120.507386 
" clip-path="url(#pd8244f3bd3)" style="fill: none; stroke: #1f77b4; stroke-width: 1.5; stroke-linecap: square"/>
   </g>
   <g id="line2d_20">
    <path d="M 69.218182 167.785731 
L 70.755372 218.895053 
L 72.292562 260.759348 
L 73.829752 270.303466 
L 75.366942 283.316851 
L 76.904132 315.555684 
L 78.441322 336.886093 
L 79.978512 335.186324 
L 81.515702 327.911139 
L 83.052893 327.506214 
L 84.590083 328.855933 
L 86.127273 320.626007 
L 90.738843 267.247271 
L 92.276033 237.897221 
L 93.813223 213.467707 
L 95.350413 207.557894 
L 96.887603 198.374604 
L 98.424793 173.029149 
L 99.961983 151.512608 
L 101.499174 143.374305 
L 103.036364 137.298304 
L 104.573554 125.301236 
L 106.110744 111.586262 
L 107.647934 102.933039 
L 109.185124 96.637069 
L 110.722314 88.549377 
L 112.259504 84.056058 
L 113.796694 89.112549 
L 115.333884 98.941141 
L 116.871074 102.998473 
L 118.408264 101.433435 
L 119.945455 106.106824 
L 121.482645 121.898615 
L 123.019835 144.419882 
L 124.557025 173.415378 
L 126.094215 205.115223 
L 127.631405 224.463839 
L 129.168595 229.771932 
L 130.705785 242.243657 
L 133.780165 299.18312 
L 135.317355 314.718757 
L 136.854545 326.037937 
L 138.391736 338.820935 
L 139.928926 349.0676 
L 141.466116 353.309665 
L 143.003306 352.527539 
L 144.540496 351.553763 
L 146.077686 353.705121 
L 147.614876 355.17816 
L 149.152066 350.200156 
L 150.689256 339.642047 
L 152.226446 329.993977 
L 153.763636 326.548729 
L 155.300826 327.499259 
L 156.838017 326.572014 
L 158.375207 323.92265 
L 159.912397 323.367118 
L 161.449587 323.692015 
L 162.986777 324.708015 
L 164.523967 328.783374 
L 169.135537 346.755594 
L 170.672727 351.586403 
L 172.209917 353.853745 
L 173.747107 354.83741 
L 175.284298 355.410319 
L 176.821488 356.197191 
L 178.358678 357.804678 
L 179.895868 358.571161 
L 181.433058 356.168857 
L 184.507438 344.513461 
L 186.044628 341.071071 
L 187.581818 336.469944 
L 189.119008 330.173089 
L 190.656198 324.774572 
L 192.193388 315.658368 
L 193.730579 297.889802 
L 196.804959 254.40954 
L 199.879339 212.398507 
L 204.490909 154.389977 
L 206.028099 133.109695 
L 207.565289 118.312479 
L 210.639669 100.71239 
L 213.71405 78.2539 
L 215.25124 70.621635 
L 216.78843 66.96 
L 218.32562 68.136763 
L 219.86281 74.804365 
L 221.4 82.517911 
L 222.93719 84.605413 
L 224.47438 83.152585 
L 226.01157 87.003709 
L 227.54876 96.380235 
L 229.08595 103.216183 
L 230.62314 105.082389 
L 232.160331 105.305994 
L 233.697521 105.09062 
L 235.234711 104.721124 
L 238.309091 106.420857 
L 239.846281 103.435202 
L 241.383471 98.653646 
L 242.920661 100.572375 
L 244.457851 110.628899 
L 245.995041 119.755533 
L 247.532231 124.787514 
L 249.069421 135.204717 
L 250.606612 159.090813 
L 252.143802 186.908872 
L 253.680992 201.562727 
L 255.218182 206.219417 
L 256.755372 216.252701 
L 258.292562 232.062283 
L 259.829752 250.087017 
L 261.366942 274.993349 
L 262.904132 295.313111 
L 264.441322 293.076389 
L 265.978512 288.059209 
L 267.515702 306.359813 
L 269.052893 327.542112 
L 270.590083 327.102927 
L 272.127273 320.645728 
L 273.664463 326.865471 
L 275.201653 335.52233 
L 276.738843 331.822134 
L 278.276033 321.202784 
L 279.813223 316.67635 
L 281.350413 319.178805 
L 282.887603 321.278621 
L 284.424793 322.73112 
L 287.499174 332.38281 
L 290.573554 333.411806 
L 292.110744 338.685592 
L 293.647934 349.43697 
L 295.185124 361.524538 
L 296.722314 367.608213 
L 298.259504 363.418719 
L 299.796694 355.660809 
L 301.333884 359.36089 
L 302.871074 369.36 
L 304.408264 355.593375 
L 305.945455 318.466722 
L 307.482645 300.128962 
L 309.019835 298.283237 
L 310.557025 265.67653 
L 312.094215 223.587088 
L 313.631405 224.679373 
L 315.168595 234.04378 
L 316.705785 198.049203 
L 318.242975 148.433293 
L 319.780165 138.142832 
L 321.317355 153.041696 
L 322.854545 152.336804 
L 324.391736 142.616527 
L 325.928926 151.875339 
L 327.466116 173.91417 
L 329.003306 189.562161 
L 330.540496 200.501244 
L 332.077686 213.64861 
L 333.614876 228.525669 
L 335.152066 245.502486 
L 336.689256 266.074606 
L 339.763636 312.670426 
L 341.300826 324.407718 
L 342.838017 323.029131 
L 344.375207 319.888639 
L 345.912397 324.612839 
L 347.449587 334.629878 
L 348.986777 341.762041 
L 350.523967 340.017476 
L 353.598347 320.322889 
L 355.135537 313.569376 
L 358.209917 302.876266 
L 359.747107 120.507386 
L 373.581818 120.507386 
L 373.581818 120.507386 
" clip-path="url(#pd8244f3bd3)" style="fill: none; stroke: #ff7f0e; stroke-width: 1.5; stroke-linecap: square"/>
   </g>
   <g id="patch_3">
    <path d="M 54 384.48 
L 54 51.84 
" style="fill: none; stroke: #000000; stroke-width: 0.8; stroke-linejoin: miter; stroke-linecap: square"/>
   </g>
   <g id="patch_4">
    <path d="M 388.8 384.48 
L 388.8 51.84 
" style="fill: none; stroke: #000000; stroke-width: 0.8; stroke-linejoin: miter; stroke-linecap: square"/>
   </g>
   <g id="patch_5">
    <path d="M 54 384.48 
L 388.8 384.48 
" style="fill: none; stroke: #000000; stroke-width: 0.8; stroke-linejoin: miter; stroke-linecap: square"/>
   </g>
   <g id="patch_6">
    <path d="M 54 51.84 
L 388.8 51.84 
" style="fill: none; stroke: #000000; stroke-width: 0.8; stroke-linejoin: miter; stroke-linecap: square"/>
   </g>
  </g>
  <g id="text_19">
   <!-- final_loss:tensor(0.0023) -->
   <g transform="translate(141.677813 17.758125) scale(0.12 -0.12)">
    <defs>
     <path id="DejaVuSans-66" d="M 2375 4863 
L 2375 4384 
L 1825 4384 
Q 1516 4384 1395 4259 
Q 1275 4134 1275 3809 
L 1275 3500 
L 2222 3500 
L 2222 3053 
L 1275 3053 
L 1275 0 
L 697 0 
L 697 3053 
L 147 3053 
L 147 3500 
L 697 3500 
L 697 3744 
Q 697 4328 969 4595 
Q 1241 4863 1831 4863 
L 2375 4863 
z
" transform="scale(0.015625)"/>
     <path id="DejaVuSans-69" d="M 603 3500 
L 1178 3500 
L 1178 0 
L 603 0 
L 603 3500 
z
M 603 4863 
L 1178 4863 
L 1178 4134 
L 603 4134 
L 603 4863 
z
" transform="scale(0.015625)"/>
     <path id="DejaVuSans-6e" d="M 3513 2113 
L 3513 0 
L 2938 0 
L 2938 2094 
Q 2938 2591 2744 2837 
Q 2550 3084 2163 3084 
Q 1697 3084 1428 2787 
Q 1159 2491 1159 1978 
L 1159 0 
L 581 0 
L 581 3500 
L 1159 3500 
L 1159 2956 
Q 1366 3272 1645 3428 
Q 1925 3584 2291 3584 
Q 2894 3584 3203 3211 
Q 3513 2838 3513 2113 
z
" transform="scale(0.015625)"/>
     <path id="DejaVuSans-61" d="M 2194 1759 
Q 1497 1759 1228 1600 
Q 959 1441 959 1056 
Q 959 750 1161 570 
Q 1363 391 1709 391 
Q 2188 391 2477 730 
Q 2766 1069 2766 1631 
L 2766 1759 
L 2194 1759 
z
M 3341 1997 
L 3341 0 
L 2766 0 
L 2766 531 
Q 2569 213 2275 61 
Q 1981 -91 1556 -91 
Q 1019 -91 701 211 
Q 384 513 384 1019 
Q 384 1609 779 1909 
Q 1175 2209 1959 2209 
L 2766 2209 
L 2766 2266 
Q 2766 2663 2505 2880 
Q 2244 3097 1772 3097 
Q 1472 3097 1187 3025 
Q 903 2953 641 2809 
L 641 3341 
Q 956 3463 1253 3523 
Q 1550 3584 1831 3584 
Q 2591 3584 2966 3190 
Q 3341 2797 3341 1997 
z
" transform="scale(0.015625)"/>
     <path id="DejaVuSans-6c" d="M 603 4863 
L 1178 4863 
L 1178 0 
L 603 0 
L 603 4863 
z
" transform="scale(0.015625)"/>
     <path id="DejaVuSans-5f" d="M 3263 -1063 
L 3263 -1509 
L -63 -1509 
L -63 -1063 
L 3263 -1063 
z
" transform="scale(0.015625)"/>
     <path id="DejaVuSans-6f" d="M 1959 3097 
Q 1497 3097 1228 2736 
Q 959 2375 959 1747 
Q 959 1119 1226 758 
Q 1494 397 1959 397 
Q 2419 397 2687 759 
Q 2956 1122 2956 1747 
Q 2956 2369 2687 2733 
Q 2419 3097 1959 3097 
z
M 1959 3584 
Q 2709 3584 3137 3096 
Q 3566 2609 3566 1747 
Q 3566 888 3137 398 
Q 2709 -91 1959 -91 
Q 1206 -91 779 398 
Q 353 888 353 1747 
Q 353 2609 779 3096 
Q 1206 3584 1959 3584 
z
" transform="scale(0.015625)"/>
     <path id="DejaVuSans-73" d="M 2834 3397 
L 2834 2853 
Q 2591 2978 2328 3040 
Q 2066 3103 1784 3103 
Q 1356 3103 1142 2972 
Q 928 2841 928 2578 
Q 928 2378 1081 2264 
Q 1234 2150 1697 2047 
L 1894 2003 
Q 2506 1872 2764 1633 
Q 3022 1394 3022 966 
Q 3022 478 2636 193 
Q 2250 -91 1575 -91 
Q 1294 -91 989 -36 
Q 684 19 347 128 
L 347 722 
Q 666 556 975 473 
Q 1284 391 1588 391 
Q 1994 391 2212 530 
Q 2431 669 2431 922 
Q 2431 1156 2273 1281 
Q 2116 1406 1581 1522 
L 1381 1569 
Q 847 1681 609 1914 
Q 372 2147 372 2553 
Q 372 3047 722 3315 
Q 1072 3584 1716 3584 
Q 2034 3584 2315 3537 
Q 2597 3491 2834 3397 
z
" transform="scale(0.015625)"/>
     <path id="DejaVuSans-3a" d="M 750 794 
L 1409 794 
L 1409 0 
L 750 0 
L 750 794 
z
M 750 3309 
L 1409 3309 
L 1409 2516 
L 750 2516 
L 750 3309 
z
" transform="scale(0.015625)"/>
     <path id="DejaVuSans-74" d="M 1172 4494 
L 1172 3500 
L 2356 3500 
L 2356 3053 
L 1172 3053 
L 1172 1153 
Q 1172 725 1289 603 
Q 1406 481 1766 481 
L 2356 481 
L 2356 0 
L 1766 0 
Q 1100 0 847 248 
Q 594 497 594 1153 
L 594 3053 
L 172 3053 
L 172 3500 
L 594 3500 
L 594 4494 
L 1172 4494 
z
" transform="scale(0.015625)"/>
     <path id="DejaVuSans-65" d="M 3597 1894 
L 3597 1613 
L 953 1613 
Q 991 1019 1311 708 
Q 1631 397 2203 397 
Q 2534 397 2845 478 
Q 3156 559 3463 722 
L 3463 178 
Q 3153 47 2828 -22 
Q 2503 -91 2169 -91 
Q 1331 -91 842 396 
Q 353 884 353 1716 
Q 353 2575 817 3079 
Q 1281 3584 2069 3584 
Q 2775 3584 3186 3129 
Q 3597 2675 3597 1894 
z
M 3022 2063 
Q 3016 2534 2758 2815 
Q 2500 3097 2075 3097 
Q 1594 3097 1305 2825 
Q 1016 2553 972 2059 
L 3022 2063 
z
" transform="scale(0.015625)"/>
     <path id="DejaVuSans-72" d="M 2631 2963 
Q 2534 3019 2420 3045 
Q 2306 3072 2169 3072 
Q 1681 3072 1420 2755 
Q 1159 2438 1159 1844 
L 1159 0 
L 581 0 
L 581 3500 
L 1159 3500 
L 1159 2956 
Q 1341 3275 1631 3429 
Q 1922 3584 2338 3584 
Q 2397 3584 2469 3576 
Q 2541 3569 2628 3553 
L 2631 2963 
z
" transform="scale(0.015625)"/>
     <path id="DejaVuSans-28" d="M 1984 4856 
Q 1566 4138 1362 3434 
Q 1159 2731 1159 2009 
Q 1159 1288 1364 580 
Q 1569 -128 1984 -844 
L 1484 -844 
Q 1016 -109 783 600 
Q 550 1309 550 2009 
Q 550 2706 781 3412 
Q 1013 4119 1484 4856 
L 1984 4856 
z
" transform="scale(0.015625)"/>
     <path id="DejaVuSans-29" d="M 513 4856 
L 1013 4856 
Q 1481 4119 1714 3412 
Q 1947 2706 1947 2009 
Q 1947 1309 1714 600 
Q 1481 -109 1013 -844 
L 513 -844 
Q 928 -128 1133 580 
Q 1338 1288 1338 2009 
Q 1338 2731 1133 3434 
Q 928 4138 513 4856 
z
" transform="scale(0.015625)"/>
    </defs>
    <use xlink:href="#DejaVuSans-66"/>
    <use xlink:href="#DejaVuSans-69" x="35.205078"/>
    <use xlink:href="#DejaVuSans-6e" x="62.988281"/>
    <use xlink:href="#DejaVuSans-61" x="126.367188"/>
    <use xlink:href="#DejaVuSans-6c" x="187.646484"/>
    <use xlink:href="#DejaVuSans-5f" x="215.429688"/>
    <use xlink:href="#DejaVuSans-6c" x="265.429688"/>
    <use xlink:href="#DejaVuSans-6f" x="293.212891"/>
    <use xlink:href="#DejaVuSans-73" x="354.394531"/>
    <use xlink:href="#DejaVuSans-73" x="406.494141"/>
    <use xlink:href="#DejaVuSans-3a" x="458.59375"/>
    <use xlink:href="#DejaVuSans-74" x="492.285156"/>
    <use xlink:href="#DejaVuSans-65" x="531.494141"/>
    <use xlink:href="#DejaVuSans-6e" x="593.017578"/>
    <use xlink:href="#DejaVuSans-73" x="656.396484"/>
    <use xlink:href="#DejaVuSans-6f" x="708.496094"/>
    <use xlink:href="#DejaVuSans-72" x="769.677734"/>
    <use xlink:href="#DejaVuSans-28" x="810.791016"/>
    <use xlink:href="#DejaVuSans-30" x="849.804688"/>
    <use xlink:href="#DejaVuSans-2e" x="913.427734"/>
    <use xlink:href="#DejaVuSans-30" x="945.214844"/>
    <use xlink:href="#DejaVuSans-30" x="1008.837891"/>
    <use xlink:href="#DejaVuSans-32" x="1072.460938"/>
    <use xlink:href="#DejaVuSans-33" x="1136.083984"/>
    <use xlink:href="#DejaVuSans-29" x="1199.707031"/>
   </g>
  </g>
 </g>
 <defs>
  <clipPath id="pd8244f3bd3">
   <rect x="54" y="51.84" width="334.8" height="332.64"/>
  </clipPath>
 </defs>
</svg>
